# Blender 4.5.3 LTS
# www.blender.org
mtllib FlamethrowerRange.mtl
o FlamethrowerRange
v 0.000000 -0.250000 0.000000
v 0.000000 0.250000 0.000000
v 0.290285 -0.250000 0.956940
v 0.290285 0.250000 0.956940
v 0.195090 -0.250000 0.980785
v 0.195090 0.250000 0.980785
v 0.098017 -0.250000 0.995185
v 0.098017 0.250000 0.995185
v 0.000000 -0.250000 1.000000
v 0.000000 0.250000 1.000000
v -0.098017 -0.250000 0.995185
v -0.098017 0.250000 0.995185
v -0.195090 -0.250000 0.980785
v -0.195090 0.250000 0.980785
v -0.290285 -0.250000 0.956940
v -0.290285 0.250000 0.956940
vn -0.0000 -1.0000 -0.0000
vn -0.0000 1.0000 -0.0000
vn 0.2430 -0.0000 0.9700
vn 0.1467 -0.0000 0.9892
vn 0.0491 -0.0000 0.9988
vn -0.0491 -0.0000 0.9988
vn -0.1467 -0.0000 0.9892
vn -0.2430 -0.0000 0.9700
vn -0.9569 -0.0000 -0.2903
vn 0.9569 -0.0000 -0.2903
vt 0.750000 0.250000
vt 0.819668 0.020334
vt 0.796822 0.014612
vt 0.250000 0.250000
vt 0.296822 0.014612
vt 0.319668 0.020334
vt 0.546875 0.500000
vt 0.546875 1.000000
vt 0.531250 1.000000
vt 0.531250 0.500000
vt 0.773524 0.011156
vt 0.273524 0.011156
vt 0.515625 1.000000
vt 0.515625 0.500000
vt 0.750000 0.010000
vt 0.250000 0.010000
vt 0.500000 1.000000
vt 0.500000 0.500000
vt 0.726476 0.011156
vt 0.226476 0.011156
vt 0.484375 1.000000
vt 0.484375 0.500000
vt 0.703178 0.014612
vt 0.203178 0.014612
vt 0.468750 1.000000
vt 0.468750 0.500000
vt 0.680332 0.020334
vt 0.180332 0.020334
vt 0.453125 1.000000
vt 0.453125 0.500000
s 0
f 1/1/1 3/2/1 5/3/1
f 2/4/2 6/5/2 4/6/2
f 3/7/3 4/8/3 6/9/3 5/10/3
f 1/1/1 5/3/1 7/11/1
f 2/4/2 8/12/2 6/5/2
f 5/10/4 6/9/4 8/13/4 7/14/4
f 1/1/1 7/11/1 9/15/1
f 2/4/2 10/16/2 8/12/2
f 7/14/5 8/13/5 10/17/5 9/18/5
f 1/1/1 9/15/1 11/19/1
f 2/4/2 12/20/2 10/16/2
f 9/18/6 10/17/6 12/21/6 11/22/6
f 1/1/1 11/19/1 13/23/1
f 2/4/2 14/24/2 12/20/2
f 11/22/7 12/21/7 14/25/7 13/26/7
f 1/1/1 13/23/1 15/27/1
f 2/4/2 16/28/2 14/24/2
f 13/26/8 14/25/8 16/29/8 15/30/8
f 15/30/9 16/29/9 2/4/9 1/1/9
f 3/7/10 1/1/10 2/4/10 4/8/10
